<svg xmlns="http://www.w3.org/2000/svg" viewBox="0 0 24 24" width="18" height="18" fill="none" stroke="currentColor" stroke-width="2">
<path d="M23 3a10.9 10.9 0 0 1-3.14 1.53A4.48 4.48 0 0 0 22.4.36a9 9 0 0 1-2.83 1.08A4.52 4.52 0 0 0 11.5 6c0 .35.04.7.11 1.03A12.8 12.8 0 0 1 1.64.9a4.52 4.52 0 0 0 1.4 6.04A4.48 4.48 0 0 1 1 6.13v.06a4.52 4.52 0 0 0 3.62 4.43 4.5 4.5 0 0 1-2.04.08 4.53 4.53 0 0 0 4.22 3.14A9.06 9.06 0 0 1 0 19.54 12.78 12.78 0 0 0 6.92 21.5c8.3 0 12.85-6.88 12.85-12.85 0-.2 0-.39-.02-.58A9.2 9.2 0 0 0 23 3z"/>
</svg>
