<svg xmlns="http://www.w3.org/2000/svg" viewBox="0 0 24 24" width="18" height="18" fill="currentColor">
<path d="M12 2a10 10 0 0 0-8.6 15L2 22l5.2-1.4A10 10 0 1 0 12 2zm0 18a8 8 0 0 1-4.1-1.1l-.3-.2-3 .8.8-2.9-.2-.3A8 8 0 1 1 12 20zm4.4-5.9c-.2-.1-1.4-.7-1.7-.8-.2-.1-.4-.1-.6.1-.2.2-.6.8-.8 1-.1.2-.3.2-.5.1-.2-.1-1-.4-1.9-1.2-.7-.6-1.2-1.4-1.3-1.6-.1-.2 0-.4.1-.5.1-.1.2-.3.4-.4.1-.1.2-.2.2-.4.1-.2 0-.3 0-.4-.1-.1-.6-1.4-.8-1.9-.2-.5-.4-.4-.6-.4h-.5c-.2 0-.5.1-.7.3-.2.2-.9.9-.9 2.2s.9 2.5 1.1 2.7c.1.2 1.8 2.8 4.4 3.8.6.3 1.1.4 1.5.6.6.2 1.2.2 1.6.1.5-.1 1.4-.6 1.6-1.1.2-.5.2-1 .1-1.1-.1-.1-.2-.2-.4-.3z"/>
</svg>
